<svg width="527" height="527" viewBox="0 0 527 527" fill="none" xmlns="http://www.w3.org/2000/svg">
<g filter="url(#filter0_n_21_138)">
<rect width="527" height="527" rx="100.428" fill="#4C364A"/>
<rect x="14.9151" y="14.9151" width="497.17" height="497.17" rx="85.5132" stroke="#4C364A" stroke-width="29.8302"/>
</g>
<g filter="url(#filter1_n_21_138)">
<rect x="36.7908" y="36.7906" width="452.425" height="452.425" rx="226.212" fill="url(#paint0_radial_21_138)"/>
<rect x="49.5952" y="49.595" width="426.816" height="426.816" rx="213.408" stroke="#4C364A" stroke-width="25.6089"/>
</g>
<mask id="path-5-outside-1_21_138" maskUnits="userSpaceOnUse" x="290.841" y="154.248" width="85" height="137" fill="black">
<rect fill="white" x="290.841" y="154.248" width="85" height="137"/>
<path d="M350.394 285.791V272.557H336.853V259.323H323.157V246.243H309.615V233.009H296.074V212.234H309.615V199H323.157V185.766H336.853V172.686H350.394V159.452H370.092V180.534H356.396V193.615H342.854V206.848H329.159V219.929H315.617V225.161H329.159V238.395H342.854V251.475H356.396V264.709H370.092V285.791H350.394Z"/>
</mask>
<path d="M350.394 285.791V272.557H336.853V259.323H323.157V246.243H309.615V233.009H296.074V212.234H309.615V199H323.157V185.766H336.853V172.686H350.394V159.452H370.092V180.534H356.396V193.615H342.854V206.848H329.159V219.929H315.617V225.161H329.159V238.395H342.854V251.475H356.396V264.709H370.092V285.791H350.394Z" fill="#4C364A"/>
<path d="M350.394 285.791H345.423V290.762H350.394V285.791ZM350.394 272.557H355.366V267.585H350.394V272.557ZM336.853 272.557H331.881V277.528H336.853V272.557ZM336.853 259.323H341.824V254.351H336.853V259.323ZM323.157 259.323H318.185V264.294H323.157V259.323ZM323.157 246.243H328.129V241.271H323.157V246.243ZM309.615 246.243H304.644V251.214H309.615V246.243ZM309.615 233.009H314.587V228.037H309.615V233.009ZM296.074 233.009H291.102V237.98H296.074V233.009ZM296.074 212.234V207.263H291.102V212.234H296.074ZM309.615 212.234V217.206H314.587V212.234H309.615ZM309.615 199V194.029H304.644V199H309.615ZM323.157 199V203.972H328.129V199H323.157ZM323.157 185.766V180.795H318.185V185.766H323.157ZM336.853 185.766V190.738H341.824V185.766H336.853ZM336.853 172.686V167.715H331.881V172.686H336.853ZM350.394 172.686V177.658H355.366V172.686H350.394ZM350.394 159.452V154.481H345.423V159.452H350.394ZM370.092 159.452H375.063V154.481H370.092V159.452ZM370.092 180.534V185.506H375.063V180.534H370.092ZM356.396 180.534V175.563H351.424V180.534H356.396ZM356.396 193.615V198.586H361.368V193.615H356.396ZM342.854 193.615V188.643H337.882V193.615H342.854ZM342.854 206.848V211.82H347.826V206.848H342.854ZM329.159 206.848V201.877H324.187V206.848H329.159ZM329.159 219.929V224.9H334.13V219.929H329.159ZM315.617 219.929V214.957H310.645V219.929H315.617ZM315.617 225.161H310.645V230.132H315.617V225.161ZM329.159 225.161H334.13V220.189H329.159V225.161ZM329.159 238.395H324.187V243.366H329.159V238.395ZM342.854 238.395H347.826V233.423H342.854V238.395ZM342.854 251.475H337.882V256.446H342.854V251.475ZM356.396 251.475H361.368V246.503H356.396V251.475ZM356.396 264.709H351.424V269.68H356.396V264.709ZM370.092 264.709H375.063V259.737H370.092V264.709ZM370.092 285.791V290.762H375.063V285.791H370.092ZM350.394 285.791H355.366V272.557H350.394H345.423V285.791H350.394ZM350.394 272.557V267.585H336.853V272.557V277.528H350.394V272.557ZM336.853 272.557H341.824V259.323H336.853H331.881V272.557H336.853ZM336.853 259.323V254.351H323.157V259.323V264.294H336.853V259.323ZM323.157 259.323H328.129V246.243H323.157H318.185V259.323H323.157ZM323.157 246.243V241.271H309.615V246.243V251.214H323.157V246.243ZM309.615 246.243H314.587V233.009H309.615H304.644V246.243H309.615ZM309.615 233.009V228.037H296.074V233.009V237.98H309.615V233.009ZM296.074 233.009H301.045V212.234H296.074H291.102V233.009H296.074ZM296.074 212.234V217.206H309.615V212.234V207.263H296.074V212.234ZM309.615 212.234H314.587V199H309.615H304.644V212.234H309.615ZM309.615 199V203.972H323.157V199V194.029H309.615V199ZM323.157 199H328.129V185.766H323.157H318.185V199H323.157ZM323.157 185.766V190.738H336.853V185.766V180.795H323.157V185.766ZM336.853 185.766H341.824V172.686H336.853H331.881V185.766H336.853ZM336.853 172.686V177.658H350.394V172.686V167.715H336.853V172.686ZM350.394 172.686H355.366V159.452H350.394H345.423V172.686H350.394ZM350.394 159.452V164.424H370.092V159.452V154.481H350.394V159.452ZM370.092 159.452H365.12V180.534H370.092H375.063V159.452H370.092ZM370.092 180.534V175.563H356.396V180.534V185.506H370.092V180.534ZM356.396 180.534H351.424V193.615H356.396H361.368V180.534H356.396ZM356.396 193.615V188.643H342.854V193.615V198.586H356.396V193.615ZM342.854 193.615H337.882V206.848H342.854H347.826V193.615H342.854ZM342.854 206.848V201.877H329.159V206.848V211.82H342.854V206.848ZM329.159 206.848H324.187V219.929H329.159H334.13V206.848H329.159ZM329.159 219.929V214.957H315.617V219.929V224.9H329.159V219.929ZM315.617 219.929H310.645V225.161H315.617H320.588V219.929H315.617ZM315.617 225.161V230.132H329.159V225.161V220.189H315.617V225.161ZM329.159 225.161H324.187V238.395H329.159H334.13V225.161H329.159ZM329.159 238.395V243.366H342.854V238.395V233.423H329.159V238.395ZM342.854 238.395H337.882V251.475H342.854H347.826V238.395H342.854ZM342.854 251.475V256.446H356.396V251.475V246.503H342.854V251.475ZM356.396 251.475H351.424V264.709H356.396H361.368V251.475H356.396ZM356.396 264.709V269.68H370.092V264.709V259.737H356.396V264.709ZM370.092 264.709H365.12V285.791H370.092H375.063V264.709H370.092ZM370.092 285.791V280.819H350.394V285.791V290.762H370.092V285.791Z" fill="#4C364A" mask="url(#path-5-outside-1_21_138)"/>
<mask id="path-7-outside-2_21_138" maskUnits="userSpaceOnUse" x="143.333" y="155.264" width="85" height="137" fill="black">
<rect fill="white" x="143.333" y="155.264" width="85" height="137"/>
<path d="M168.779 286.806V273.572H182.321V260.338H196.017V247.258H209.559V234.024H223.1V213.25H209.559V200.016H196.017V186.782H182.321V173.702H168.779V160.468H149.082V181.55H162.778V194.63H176.32V207.864H190.015V220.944H203.557V226.176H190.015V239.41H176.32V252.49H162.778V265.724H149.082V286.806H168.779Z"/>
</mask>
<path d="M168.779 286.806V273.572H182.321V260.338H196.017V247.258H209.559V234.024H223.1V213.25H209.559V200.016H196.017V186.782H182.321V173.702H168.779V160.468H149.082V181.55H162.778V194.63H176.32V207.864H190.015V220.944H203.557V226.176H190.015V239.41H176.32V252.49H162.778V265.724H149.082V286.806H168.779Z" fill="#4C364A"/>
<path d="M168.779 286.806H173.751V291.778H168.779V286.806ZM168.779 273.572H163.808V268.601H168.779V273.572ZM182.321 273.572H187.293V278.544H182.321V273.572ZM182.321 260.338H177.349V255.367H182.321V260.338ZM196.017 260.338H200.988V265.31H196.017V260.338ZM196.017 247.258H191.045V242.287H196.017V247.258ZM209.559 247.258H214.53V252.23H209.559V247.258ZM209.559 234.024H204.587V229.053H209.559V234.024ZM223.1 234.024H228.072V238.996H223.1V234.024ZM223.1 213.25V208.278H228.072V213.25H223.1ZM209.559 213.25V218.222H204.587V213.25H209.559ZM209.559 200.016V195.044H214.53V200.016H209.559ZM196.017 200.016V204.988H191.045V200.016H196.017ZM196.017 186.782V181.81H200.988V186.782H196.017ZM182.321 186.782V191.754H177.349V186.782H182.321ZM182.321 173.702V168.73H187.293V173.702H182.321ZM168.779 173.702V178.674H163.808V173.702H168.779ZM168.779 160.468V155.496H173.751V160.468H168.779ZM149.082 160.468H144.111V155.496H149.082V160.468ZM149.082 181.55V186.522H144.111V181.55H149.082ZM162.778 181.55V176.578H167.75V181.55H162.778ZM162.778 194.63V199.602H157.806V194.63H162.778ZM176.32 194.63V189.659H181.291V194.63H176.32ZM176.32 207.864V212.836H171.348V207.864H176.32ZM190.015 207.864V202.892H194.987V207.864H190.015ZM190.015 220.944V225.916H185.044V220.944H190.015ZM203.557 220.944V215.973H208.529V220.944H203.557ZM203.557 226.176H208.529V231.148H203.557V226.176ZM190.015 226.176H185.044V221.205H190.015V226.176ZM190.015 239.41H194.987V244.382H190.015V239.41ZM176.32 239.41H171.348V234.439H176.32V239.41ZM176.32 252.49H181.291V257.462H176.32V252.49ZM162.778 252.49H157.806V247.519H162.778V252.49ZM162.778 265.724H167.75V270.696H162.778V265.724ZM149.082 265.724H144.111V260.753H149.082V265.724ZM149.082 286.806V291.778H144.111V286.806H149.082ZM168.779 286.806H163.808V273.572H168.779H173.751V286.806H168.779ZM168.779 273.572V268.601H182.321V273.572V278.544H168.779V273.572ZM182.321 273.572H177.349V260.338H182.321H187.293V273.572H182.321ZM182.321 260.338V255.367H196.017V260.338V265.31H182.321V260.338ZM196.017 260.338H191.045V247.258H196.017H200.988V260.338H196.017ZM196.017 247.258V242.287H209.559V247.258V252.23H196.017V247.258ZM209.559 247.258H204.587V234.024H209.559H214.53V247.258H209.559ZM209.559 234.024V229.053H223.1V234.024V238.996H209.559V234.024ZM223.1 234.024H218.129V213.25H223.1H228.072V234.024H223.1ZM223.1 213.25V218.222H209.559V213.25V208.278H223.1V213.25ZM209.559 213.25H204.587V200.016H209.559H214.53V213.25H209.559ZM209.559 200.016V204.988H196.017V200.016V195.044H209.559V200.016ZM196.017 200.016H191.045V186.782H196.017H200.988V200.016H196.017ZM196.017 186.782V191.754H182.321V186.782V181.81H196.017V186.782ZM182.321 186.782H177.349V173.702H182.321H187.293V186.782H182.321ZM182.321 173.702V178.674H168.779V173.702V168.73H182.321V173.702ZM168.779 173.702H163.808V160.468H168.779H173.751V173.702H168.779ZM168.779 160.468V165.44H149.082V160.468V155.496H168.779V160.468ZM149.082 160.468H154.054V181.55H149.082H144.111V160.468H149.082ZM149.082 181.55V176.578H162.778V181.55V186.522H149.082V181.55ZM162.778 181.55H167.75V194.63H162.778H157.806V181.55H162.778ZM162.778 194.63V189.659H176.32V194.63V199.602H162.778V194.63ZM176.32 194.63H181.291V207.864H176.32H171.348V194.63H176.32ZM176.32 207.864V202.892H190.015V207.864V212.836H176.32V207.864ZM190.015 207.864H194.987V220.944H190.015H185.044V207.864H190.015ZM190.015 220.944V215.973H203.557V220.944V225.916H190.015V220.944ZM203.557 220.944H208.529V226.176H203.557H198.585V220.944H203.557ZM203.557 226.176V231.148H190.015V226.176V221.205H203.557V226.176ZM190.015 226.176H194.987V239.41H190.015H185.044V226.176H190.015ZM190.015 239.41V244.382H176.32V239.41V234.439H190.015V239.41ZM176.32 239.41H181.291V252.49H176.32H171.348V239.41H176.32ZM176.32 252.49V257.462H162.778V252.49V247.519H176.32V252.49ZM162.778 252.49H167.75V265.724H162.778H157.806V252.49H162.778ZM162.778 265.724V270.696H149.082V265.724V260.753H162.778V265.724ZM149.082 265.724H154.054V286.806H149.082H144.111V265.724H149.082ZM149.082 286.806V281.835H168.779V286.806V291.778H149.082V286.806Z" fill="#4C364A" mask="url(#path-7-outside-2_21_138)"/>
<rect x="378.416" y="299.864" width="37.6442" height="37.6442" fill="#ED87E2" stroke="#4C364A" stroke-width="0.853631"/>
<rect x="106.961" y="301.852" width="37.6442" height="37.6442" fill="#E277D8" stroke="#4C364A" stroke-width="0.853631"/>
<mask id="path-11-outside-3_21_138" maskUnits="userSpaceOnUse" x="170.941" y="306.183" width="184" height="97" fill="black">
<rect fill="white" x="170.941" y="306.183" width="184" height="97"/>
<path d="M339.667 319.183C335.678 358.98 302.789 390.026 262.805 390.026C222.821 390.026 189.93 358.98 185.941 319.183H198.916C202.681 351.896 229.848 377.274 262.805 377.274C295.761 377.274 322.928 351.896 326.693 319.183H339.667Z"/>
</mask>
<path d="M339.667 319.183C335.678 358.98 302.789 390.026 262.805 390.026C222.821 390.026 189.93 358.98 185.941 319.183H198.916C202.681 351.896 229.848 377.274 262.805 377.274C295.761 377.274 322.928 351.896 326.693 319.183H339.667Z" fill="#4C364A"/>
<path d="M339.667 319.183L352.529 320.472L353.954 306.257H339.667V319.183ZM262.805 390.026L262.805 402.952L262.805 402.952L262.805 390.026ZM185.941 319.183V306.257H171.654L173.079 320.472L185.941 319.183ZM198.916 319.183L211.758 317.705L210.44 306.257H198.916V319.183ZM262.805 377.274L262.805 390.2L262.805 390.2L262.805 377.274ZM326.693 319.183V306.257H315.168L313.851 317.705L326.693 319.183ZM339.667 319.183L326.805 317.894C323.449 351.382 295.853 377.099 262.805 377.099L262.805 390.026L262.805 402.952C309.724 402.952 347.908 366.577 352.529 320.472L339.667 319.183ZM262.805 390.026V377.099C229.756 377.099 202.159 351.382 198.803 317.894L185.941 319.183L173.079 320.472C177.7 366.578 215.885 402.952 262.805 402.952V390.026ZM185.941 319.183V332.11H198.916V319.183V306.257H185.941V319.183ZM198.916 319.183L186.074 320.661C190.553 359.579 222.964 390.2 262.805 390.2V377.274V364.348C236.733 364.348 214.808 344.214 211.758 317.705L198.916 319.183ZM262.805 377.274L262.805 390.2C302.646 390.2 335.056 359.578 339.534 320.661L326.693 319.183L313.851 317.705C310.8 344.214 288.877 364.347 262.805 364.348L262.805 377.274ZM326.693 319.183V332.11H339.667V319.183V306.257H326.693V319.183Z" fill="#4C364A" mask="url(#path-11-outside-3_21_138)"/>
<defs>
<filter id="filter0_n_21_138" x="0" y="0" width="527" height="527" filterUnits="userSpaceOnUse" color-interpolation-filters="sRGB">
<feFlood flood-opacity="0" result="BackgroundImageFix"/>
<feBlend mode="normal" in="SourceGraphic" in2="BackgroundImageFix" result="shape"/>
<feTurbulence type="fractalNoise" baseFrequency="0.33523088693618774 0.33523088693618774" stitchTiles="stitch" numOctaves="3" result="noise" seed="4799" />
<feColorMatrix in="noise" type="luminanceToAlpha" result="alphaNoise" />
<feComponentTransfer in="alphaNoise" result="coloredNoise1">
<feFuncA type="discrete" tableValues="1 1 1 1 1 1 1 1 1 1 1 1 1 1 1 1 1 1 1 1 1 1 1 1 1 1 1 1 1 1 1 1 1 1 1 1 1 1 1 1 1 1 1 1 1 1 1 1 1 1 1 0 0 0 0 0 0 0 0 0 0 0 0 0 0 0 0 0 0 0 0 0 0 0 0 0 0 0 0 0 0 0 0 0 0 0 0 0 0 0 0 0 0 0 0 0 0 0 0 0 "/>
</feComponentTransfer>
<feComposite operator="in" in2="shape" in="coloredNoise1" result="noise1Clipped" />
<feFlood flood-color="rgba(0, 0, 0, 0.25)" result="color1Flood" />
<feComposite operator="in" in2="noise1Clipped" in="color1Flood" result="color1" />
<feMerge result="effect1_noise_21_138">
<feMergeNode in="shape" />
<feMergeNode in="color1" />
</feMerge>
</filter>
<filter id="filter1_n_21_138" x="36.7908" y="36.7906" width="452.425" height="452.425" filterUnits="userSpaceOnUse" color-interpolation-filters="sRGB">
<feFlood flood-opacity="0" result="BackgroundImageFix"/>
<feBlend mode="normal" in="SourceGraphic" in2="BackgroundImageFix" result="shape"/>
<feTurbulence type="fractalNoise" baseFrequency="0.39048865437507629 0.39048865437507629" stitchTiles="stitch" numOctaves="3" result="noise" seed="4799" />
<feColorMatrix in="noise" type="luminanceToAlpha" result="alphaNoise" />
<feComponentTransfer in="alphaNoise" result="coloredNoise1">
<feFuncA type="discrete" tableValues="1 1 1 1 1 1 1 1 1 1 1 1 1 1 1 1 1 1 1 1 1 1 1 1 1 1 1 1 1 1 1 1 1 1 1 1 1 1 1 1 1 1 1 1 1 1 1 1 1 1 1 0 0 0 0 0 0 0 0 0 0 0 0 0 0 0 0 0 0 0 0 0 0 0 0 0 0 0 0 0 0 0 0 0 0 0 0 0 0 0 0 0 0 0 0 0 0 0 0 0 "/>
</feComponentTransfer>
<feComposite operator="in" in2="shape" in="coloredNoise1" result="noise1Clipped" />
<feFlood flood-color="rgba(0, 0, 0, 0.25)" result="color1Flood" />
<feComposite operator="in" in2="noise1Clipped" in="color1Flood" result="color1" />
<feMerge result="effect1_noise_21_138">
<feMergeNode in="shape" />
<feMergeNode in="color1" />
</feMerge>
</filter>
<radialGradient id="paint0_radial_21_138" cx="0" cy="0" r="1" gradientUnits="userSpaceOnUse" gradientTransform="translate(263.003 263.003) rotate(48.5878) scale(2023.16)">
<stop stop-color="#E3D2E1"/>
<stop offset="1" stop-color="#DC5BCF"/>
</radialGradient>
</defs>
</svg>
